<svg height="32" class="jss112" viewBox="0 0 390.04 64.74"><g data-name="Layer 2"><g data-name="Layer 1"><path fill="none" d="M77.66 39.62h13.79L84.6 15.46l-6.94 24.16z"/><path fill="#fff" d="M0 14.76h16.25v48.93h18.1V14.76H50.6V.88H0v13.88zM74.14.88 54 63.69h16.8L74.14 52H95l3.3 11.69h19.06L97.42.88Zm3.52 38.74 6.94-24.16 6.85 24.16ZM186.06.88h-18.45l-9.66 18.71L148.11.88h-20.47l17.92 30.48-19.41 32.33h18.53l11.69-21.61 11.68 21.61h20.56l-19.42-32.94L186.06.88zm16.69 62.81h18.09V41.46h19.42V28.2h-19.42V14.85h24.34V.88h-42.43v62.81zm80.12-43.17a7.59 7.59 0 0 0 .86 3.61c0-2.23.25-4.77 1.15-6.08a6.09 6.09 0 0 0 2.54 1.42 7.52 7.52 0 0 1-1-3.23 3.38 3.38 0 0 1 .41-1.61 22 22 0 0 1 4.66 1.78 20.57 20.57 0 0 0-3.18-7c-2.68 2.59-5.44 7-5.44 11.11Z"/><path d="M288.75 0a34.48 34.48 0 0 0-22.18 7.52 30 30 0 0 0-13.09 25.26c0 14.5 9 26 22.51 30a39 39 0 0 0 12.5 1.93c20.29 0 33.55-13.17 33.55-32.5v-.7C322 12 307.9 0 288.75 0Zm14.71 7.45c-.09 4.46-.52 8.08-2.79 12a12.55 12.55 0 0 1-3.22-2.77c.52-2.52 2.2-4.48 4.06-6.28a14.46 14.46 0 0 0-5.91 4.52 25.16 25.16 0 0 1-.93-3.18 24.79 24.79 0 0 1 8.79-4.29Zm-38.15 17c1.42-1.83 3.64-2.58 5.49-3.14a35.08 35.08 0 0 0 .94 5.09 12.51 12.51 0 0 0-6.73 3v-.83a18.59 18.59 0 0 1 .3-4.17Zm-5.57 15.2c1.52-2.25 3.68-4.73 8.78-7.93 1.41 1.82 3.35 2.8 5.09 4.37a30.66 30.66 0 0 0-5.09 7.09c-2.79-1.86-5.52-2.5-8.78-3.58Zm8.07 12c2.62-3.14 6-6.05 9.7-7.1a17.07 17.07 0 0 0 .22 12.65c-6-1.93-7.93-2.57-9.92-5.57Zm18.93 6.19s-4.72-5.14-4.5-7.72c0 0 1.71-2.14 8.57-2.14 0 .02-4.93 6.41-4.07 9.84Zm20.64-11.58a17.37 17.37 0 0 1-3.38-.33 42.66 42.66 0 0 0-7.83 1.68 13 13 0 0 0-6.85-1.84 20.11 20.11 0 0 0-10.26 3 17.74 17.74 0 0 1 4.06-7.19h-.63c-3.24 0-7.85 1.63-11 3a16.94 16.94 0 0 1 6.87-7.77 19 19 0 0 1-7.56-8.42 43.33 43.33 0 0 0 5.33 1.91 19.61 19.61 0 0 1-3.38-11.55v-.42c1.71.84 3.48 1.63 5.2 2.48.22-6.45 5.71-12.74 11.21-15.59 3.31 3.62 4.5 8.12 4.5 12.85a32.33 32.33 0 0 1-.23 3.81c.67-1.79 1.26-3.52 1.82-5.42a32.82 32.82 0 0 0 8.38 6.79 33.75 33.75 0 0 0 2.07 8.82c2.71 2.41 4.84 5.69 7.91 7.75a46.18 46.18 0 0 0 .39 5 15.81 15.81 0 0 1-6.62 1.42Z" fill="#fff"/><path fill="#fff" d="m292.29 28.46 2.78 4.29 4.74 1.28-2.36-2.78-5.16-2.79zm78.33 2.29L387.49.88h-18.45l-9.66 18.71L349.54.88h-20.47l17.92 30.48-19.41 32.33h18.53l11.69-21.61 11.68 21.61h20.56l-19.42-32.94z"/></g></g></svg>